#!OML:ASF H:\Terrain\Patient Classification 1\Takeo\Monday\TakeoMonday.ASF
:FULLY-SPECIFIED
:DEGREES
699
root 8.89214 17.7793 0.150186 1.87476 31.3829 -2.44829
lowerback 14.6274 0.0629754 3.61025
upperback 5.00801 0.587431 -1.98825
thorax -2.83891 0.353851 -4.23468
lowerneck -10.535 -4.98313 -6.07951
upperneck -13.8346 -5.70814 3.29409
head -2.38848 -2.53183 2.01885
rclavicle 2.80286e-014 -2.14687e-014
rhumerus 57.9697 9.61125 -23.7085
rradius 66.2836
rwrist -11.4105
rhand -36.682 35.5786
rfingers 7.12502
rthumb -9.76789 5.82512
lclavicle 2.80286e-014 -2.14687e-014
lhumerus -35.2907 3.38301 85.0063
lradius 44.6722
lwrist 32.413
lhand -30.4252 13.2883
lfingers 7.12502
lthumb -3.72807 43.2355
rfemur -16.0614 -9.79645 20.2482
rtibia 26.1006
rfoot -13.5442 -21.293
rtoes 10.2745
lfemur -11.3165 -6.93025 -17.4138
ltibia 27.3007
lfoot -14.1895 11.1035
ltoes -10.6796
700
root 8.87899 17.7743 0.106672 2.51075 31.5984 -2.27089
lowerback 14.9892 0.059466 3.72313
upperback 5.07473 0.612157 -2.00002
thorax -2.95803 0.366377 -4.32195
lowerneck -11.4365 -4.96436 -5.57824
upperneck -12.7465 -5.72989 2.57101
head -1.90716 -2.56888 1.64233
rclavicle -2.98177e-015 8.34896e-015
rhumerus 57.893 10.504 -23.803
rradius 65.6982
rwrist -11.1076
rhand -37.4076 34.9969
rfingers 7.12502
rthumb -10.4679 5.27751
lclavicle -2.98177e-015 8.34896e-015
lhumerus -35.0035 3.12483 85.1995
lradius 45.2797
lwrist 32.5796
lhand -30.6883 13.0152
lfingers 7.12502
lthumb -3.9821 42.9577
rfemur -17.1027 -10.0899 20.1724
rtibia 26.6359
rfoot -13.4068 -21.2706
rtoes 9.66235
lfemur -12.524 -6.67748 -17.5229
ltibia 28.0682
lfoot -14.2804 10.7222
ltoes -11.4121
701
root 8.86274 17.7722 0.0648893 2.88126 31.7797 -2.19122
lowerback 15.5536 0.0181497 3.83608
upperback 5.22872 0.598309 -1.97166
thorax -3.0971 0.361684 -4.36318
lowerneck -11.4983 -4.92726 -5.45038
upperneck -12.6207 -5.70513 2.36923
head -1.86563 -2.56194 1.5513
rclavicle 4.59193e-014 -3.57812e-014
rhumerus 57.8168 11.316 -24.077
rradius 65.1259
rwrist -10.8297
rhand -37.8676 34.6936
rfingers 7.12502
rthumb -10.9116 4.99714
lclavicle 4.59193e-014 -3.57812e-014
lhumerus -34.7769 2.85791 85.3516
lradius 46.0168
lwrist 32.8676
lhand -30.8573 13.2616
lfingers 7.12502
lthumb -4.14538 43.201
rfemur -17.9305 -10.2618 20.1476
rtibia 27.2706
rfoot -13.514 -21.2465
rtoes 8.48237
lfemur -13.5019 -6.36816 -17.5704
ltibia 28.7566
lfoot -14.1858 10.3976
ltoes -12.5314
702
root 8.83811 17.7684 0.0255135 3.39281 31.8903 -1.98911
lowerback 16.046 0.10464 3.82487
upperback 5.38838 0.731449 -1.95725
thorax -3.17712 0.430914 -4.37349
lowerneck -11.4065 -5.01352 -5.24452
upperneck -12.7876 -5.86675 2.07234
head -1.94433 -2.64462 1.42266
rclavicle 5.50634e-014 -3.93594e-014
rhumerus 57.5008 11.9091 -24.3799
rradius 64.5097
rwrist -10.8092
rhand -37.417 35.2954
rfingers 7.12502
rthumb -10.477 5.57647
lclavicle 5.50634e-014 -3.93594e-014
lhumerus -34.6599 2.24202 85.6068
lradius 46.9479
lwrist 33.1594
lhand -31.1885 13.7778
lfingers 7.12502
lthumb -4.46516 43.7107
rfemur -18.8714 -10.2221 20.045
rtibia 27.9372
rfoot -13.7679 -21.2557
rtoes 9.21274
lfemur -14.5637 -6.02888 -17.6933
ltibia 29.3931
lfoot -13.9643 10.1171
ltoes -12.0364
703
root 8.80974 17.7475 -0.0175329 4.1314 32.0423 -1.52594
lowerback 16.5949 0.235592 3.63174
upperback 5.4579 0.89329 -1.97323
thorax -3.38208 0.508304 -4.32178
lowerneck -11.0489 -5.01541 -5.04324
upperneck -12.9869 -5.93624 1.74653
head -2.08151 -2.68111 1.29724
rclavicle 1.8487e-014 1.98785e-015
rhumerus 57.1178 12.5362 -24.538
rradius 63.9355
rwrist -10.9368
rhand -37.8109 35.7663
rfingers 7.12502
rthumb -10.8568 6.06698
lclavicle 1.8487e-014 1.98785e-015
lhumerus -34.6292 1.56545 85.9399
lradius 47.862
lwrist 33.4276
lhand -31.4755 14.0475
lfingers 7.12502
lthumb -4.74233 43.9744
rfemur -19.9459 -10.2679 19.7295
rtibia 28.5553
rfoot -13.7613 -21.301
rtoes 9.99187
lfemur -15.6911 -5.79294 -18.0571
ltibia 30.059
lfoot -13.9332 9.83429
ltoes -11.0173
704
root 8.78744 17.729 -0.0622832 4.42163 32.3277 -1.66445
lowerback 17.319 0.203447 4.08559
upperback 5.53784 0.955528 -1.93365
thorax -3.66478 0.536528 -4.56827
lowerneck -11.1474 -4.88694 -5.13354
upperneck -12.4825 -5.74434 1.86126
head -1.8981 -2.5936 1.33969
rclavicle 3.91606e-014 -2.38542e-015
rhumerus 56.8569 13.2369 -24.7225
rradius 63.3804
rwrist -11.1299
rhand -38.8103 35.4423
rfingers 7.12502
rthumb -11.8207 5.79592
lclavicle 3.91606e-014 -2.38542e-015
lhumerus -34.5565 0.977545 86.1072
lradius 48.7115
lwrist 33.6394
lhand -31.423 13.8745
lfingers 7.12502
lthumb -4.69155 43.8025
rfemur -20.8631 -10.4705 19.9415
rtibia 29.2392
rfoot -13.9219 -21.296
rtoes 9.47496
lfemur -16.6728 -5.66925 -17.8672
ltibia 30.7636
lfoot -14.1857 9.32382
ltoes -11.0077
705
root 8.76786 17.7206 -0.110461 4.51371 32.6185 -2.26493
lowerback 17.9212 0.106679 5.09267
upperback 5.69933 1.03076 -1.91394
thorax -3.77702 0.579005 -5.15323
lowerneck -11.4319 -4.82231 -5.11307
upperneck -12.0339 -5.62962 2.07268
head -1.70206 -2.54738 1.38967
rclavicle 1.25433e-013 -2.42517e-014
rhumerus 56.6103 13.7221 -25.0212
rradius 62.7816
rwrist -11.6305
rhand -38.5878 34.969
rfingers 7.12502
rthumb -11.6062 5.31039
lclavicle 1.25433e-013 -2.42517e-014
lhumerus -34.2762 0.351171 86.1274
lradius 49.5477
lwrist 33.8022
lhand -31.4166 13.7244
lfingers 7.12502
lthumb -4.68542 43.6526
rfemur -21.8341 -10.6467 20.5797
rtibia 29.9962
rfoot -14.38 -21.1371
rtoes 9.775
lfemur -17.7905 -5.56946 -17.2361
ltibia 31.5414
lfoot -14.3254 8.85459
ltoes -11.214
706
root 8.74087 17.6924 -0.158697 5.15705 32.8838 -2.13497
lowerback 18.3736 0.126926 5.38159
upperback 5.84443 1.12951 -1.99418
thorax -3.83683 0.633156 -5.43663
lowerneck -11.3175 -4.97213 -4.87711
upperneck -12.1138 -5.86973 1.9488
head -1.74838 -2.6753 1.30862
rclavicle 1.94809e-014 -1.07344e-014
rhumerus 56.2566 14.0553 -25.2131
rradius 62.2639
rwrist -12.2436
rhand -37.2276 35.0671
rfingers 7.12502
rthumb -10.2943 5.33899
lclavicle 1.94809e-014 -1.07344e-014
lhumerus -33.901 -0.181872 86.2106
lradius 50.2184
lwrist 33.7503
lhand -31.2627 13.5632
lfingers 7.12502
lthumb -4.53685 43.4946
rfemur -22.9958 -10.8512 20.606
rtibia 30.678
rfoot -14.604 -21.004
rtoes 9.15697
lfemur -19.1502 -5.55271 -17.274
ltibia 32.4278
lfoot -14.3156 8.65629
ltoes -10.9978
707
root 8.71334 17.6551 -0.19954 5.88245 33.1633 -1.73523
lowerback 18.8067 0.218098 5.32818
upperback 6.02577 1.26611 -1.96673
thorax -3.85332 0.70714 -5.41479
lowerneck -11.3044 -5.16883 -5.06166
upperneck -12.002 -6.12159 1.88179
head -1.70321 -2.79525 1.30923
rclavicle -3.3197e-014 3.598e-014
rhumerus 56.0019 14.3334 -25.1368
rradius 61.5839
rwrist -12.3605
rhand -36.8697 34.7348
rfingers 7.12502
rthumb -9.94891 4.98989
lclavicle -3.3197e-014 3.598e-014
lhumerus -33.5013 -0.640659 86.5282
lradius 50.7798
lwrist 33.5112
lhand -30.6407 12.9942
lfingers 7.12502
lthumb -3.93618 42.9376
rfemur -24.0914 -11.1747 20.3933
rtibia 31.3193
rfoot -14.6331 -20.9337
rtoes 8.23065
lfemur -20.4166 -5.4964 -17.5656
ltibia 33.3619
lfoot -14.4978 8.30206
ltoes -10.5527
708
root 8.68909 17.6315 -0.237769 6.24681 33.348 -1.95852
lowerback 19.1627 0.269026 5.77926
upperback 6.27291 1.44461 -1.81523
thorax -3.73914 0.80941 -5.55462
lowerneck -11.4012 -5.20386 -5.3302
upperneck -11.8685 -6.12721 2.01808
head -1.63216 -2.79064 1.39193
rclavicle -6.30147e-014 -2.18663e-015
rhumerus 56.0366 14.5705 -25.224
rradius 60.6001
rwrist -12.3061
rhand -37.1697 33.6376
rfingers 7.12502
rthumb -10.2383 3.90673
lclavicle -6.30147e-014 -2.18663e-015
lhumerus -33.1519 -1.22633 86.8322
lradius 51.5677
lwrist 33.5013
lhand -30.149 12.5826
lfingers 7.12502
lthumb -3.46132 42.5343
rfemur -25.1742 -11.3898 20.7459
rtibia 32.0341
rfoot -14.9134 -20.7912
rtoes 8.79279
lfemur -21.6496 -5.16854 -17.2922
ltibia 34.2652
lfoot -14.7251 7.70273
ltoes -10.2463
709
root 8.66005 17.6106 -0.280967 6.51579 33.5673 -2.415
lowerback 19.5219 0.164367 6.28384
upperback 6.55277 1.43017 -1.723
thorax -3.61105 0.820556 -5.7478
lowerneck -11.4389 -5.01573 -4.91942
upperneck -11.9788 -5.92008 1.93758
head -1.68235 -2.70106 1.30449
rclavicle 1.21259e-014 -2.5842e-015
rhumerus 56.3093 14.8608 -25.7327
rradius 59.7251
rwrist -12.3571
rhand -37.1305 32.7616
rfingers 7.12502
rthumb -10.2005 3.02894
lclavicle 1.21259e-014 -2.5842e-015
lhumerus -32.8393 -1.68817 86.7886
lradius 52.5954
lwrist 33.834
lhand -30.3935 12.2438
lfingers 7.12502
lthumb -3.69751 42.1914
rfemur -26.3434 -11.5446 21.3584
rtibia 32.8455
rfoot -15.0463 -20.7554
rtoes 8.6267
lfemur -22.9406 -4.83901 -16.797
ltibia 35.1221
lfoot -14.845 7.07347
ltoes -10.1486
